<?xml version="1.0" encoding="utf-8"?>
<!-- Generator: Adobe Illustrator 19.0.0, SVG Export Plug-In . SVG Version: 6.00 Build 0)  -->
<svg version="1.1" id="Capa_1" xmlns="http://www.w3.org/2000/svg" xmlns:xlink="http://www.w3.org/1999/xlink" x="0px" y="0px"
	 width="285px" height="285px" viewBox="463.5 253.5 285 285" style="enable-background:new 463.5 253.5 285 285;"
	 xml:space="preserve">
<style type="text/css">
	.st0{fill:#DFE2E6;}
	.st1{fill:#D9DCE0;}
</style>
<circle class="st0" cx="606" cy="396" r="142.5"/>
<g>
	<g>
		<path class="st1" d="M614.7,417.1c18.3,0,33.1-14.9,33.1-33.1c0-18.3-14.9-33.1-33.1-33.1c-18.3,0-33.1,14.9-33.1,33.1
			S596.4,417.1,614.7,417.1z"/>
		<g>
			<path class="st1" d="M586.5,423.7c-12.8,0-23.1,10.3-23.1,23.1v25.8c0,2.5,2,4.4,4.4,4.4h93.7c2.5,0,4.4-2,4.4-4.4v-25.2
				c0.4-0.7,0.7-1.4,1-2.2l18.1-48c0.6-1.6,0.9-3.3,0.9-5v-53.9c0-7.9-6.4-14.2-14.2-14.2c-7.9,0-14.2,6.4-14.2,14.2v51.3l-12.9,34
				H586.5z"/>
			<path class="st1" d="M530.5,346.5h10.5c2.2,0,4.1-1.6,4.4-3.8c0.6-3.9,1.8-6.9,3.6-8.6c1.7-1.6,4-2.4,7.1-2.4
				c3.2,0,5.7,0.9,7.6,2.7c1.9,1.8,2.8,4.1,2.8,7c0,1.4-0.3,2.7-1,3.9c-0.3,0.6-1.7,2.5-6.7,6.8c-4.7,3.9-7.8,7.7-9.6,11.3
				c-1.9,3.8-2.8,9.2-2.8,16.6l0,0c0,2.5,2,4.4,4.4,4.4h9.5c2.5,0,4.4-2,4.4-4.4l0,0c0-5.7,0.7-8.1,1.1-9c0.3-0.7,1.7-2.8,6.9-7.2
				c4.9-4.1,8.2-7.8,10.1-11.3c1.9-3.6,2.9-7.6,2.9-11.9c0-7.6-2.9-13.9-8.5-18.8c-5.5-4.7-12.6-7.1-21.2-7.1
				c-8.2,0-15.2,2.5-20.6,7.3c-5.5,4.9-8.7,11.5-9.4,19.6l0,0C525.8,344.3,527.9,346.5,530.5,346.5z"/>
			<path class="st1" d="M560.3,409.7c2.5,0,4.4-2,4.4-4.4v-9.5c0-2.5-2-4.4-4.4-4.4h-9.5c-2.5,0-4.4,2-4.4,4.4v9.5
				c0,2.5,2,4.4,4.4,4.4H560.3z"/>
		</g>
	</g>
</g>
</svg>
