<?xml version="1.0" encoding="utf-8"?>
<!-- Generator: Adobe Illustrator 22.0.1, SVG Export Plug-In . SVG Version: 6.00 Build 0)  -->
<svg version="1.1" id="Capa_1" xmlns="http://www.w3.org/2000/svg" xmlns:xlink="http://www.w3.org/1999/xlink" x="0px" y="0px"
	 viewBox="0 0 1440 1440" style="enable-background:new 0 0 1440 1440;" xml:space="preserve">
<style type="text/css">
	.st0{opacity:3.000000e-02;}
</style>
<g class="st0">
	<g>
		<path d="M768.6,838.8c102.8,0,186.4-83.6,186.4-186.4S871.4,466,768.6,466s-186.4,83.6-186.4,186.4S665.8,838.8,768.6,838.8z"/>
		<g>
			<path d="M610.1,875.8c-71.8,0-130,58.2-130,130V1151c0,13.8,11.2,25,25,25h527c13.8,0,25-11.2,25-25v-141.6
				c2.2-3.8,4.2-7.9,5.8-12.2l102-270c3.4-9,5.2-18.6,5.2-28.3v-303c0-44.2-35.8-80-80-80s-80,35.8-80,80v288.4l-72.3,191.5
				L610.1,875.8L610.1,875.8z"/>
			<path d="M294.8,442h59c12.4,0,22.9-9,24.7-21.2c3.4-22.2,10.3-38.6,20.5-48.5c9.5-9.2,22.6-13.7,40.2-13.7
				c18.2,0,32.1,5,42.7,15.4s15.5,22.9,15.5,39.5c0,7.8-1.8,15-5.5,22c-1.9,3.5-9.3,14.3-37.5,38.2c-26.2,22.2-43.9,43.1-54.2,63.8
				c-10.5,21.1-15.6,51.8-15.6,93.6l0,0c0,13.8,11.2,25,25,25h53.3c13.8,0,25-11.2,25-25l0,0c0-32.3,3.9-45.5,6.2-50.5
				c1.8-4,9.3-15.8,39-40.4c27.6-22.9,46.2-43.8,56.8-63.8c10.9-20.5,16.4-43,16.4-66.8c0-42.5-16.1-78-48-105.6
				c-30.8-26.6-71-40.1-119.5-40.1c-46.2,0-85.3,13.8-116,40.9c-31,27.4-48.7,64.5-52.7,110.2l0,0C268.7,429.4,280.2,442,294.8,442z
				"/>
			<path d="M462.7,797.5c13.8,0,25-11.2,25-25v-53.2c0-13.8-11.2-25-25-25h-53.2c-13.8,0-25,11.2-25,25v53.2c0,13.8,11.2,25,25,25
				H462.7z"/>
		</g>
	</g>
</g>
</svg>
