<?xml version="1.0" encoding="utf-8"?>
<!-- Generator: Adobe Illustrator 19.0.1, SVG Export Plug-In . SVG Version: 6.00 Build 0)  -->
<svg version="1.1" baseProfile="basic" xmlns="http://www.w3.org/2000/svg" xmlns:xlink="http://www.w3.org/1999/xlink" x="0px"
	 y="0px" width="72px" height="72px" viewBox="-277 361 72 72" xml:space="preserve">
<style type="text/css">
	.st0{display:none;}
	.st1{display:inline;fill:#1076B9;}
	.st2{fill:#FFFFFF;}
</style>
<g id="Capa_2" class="st0">
	<rect x="-277" y="361" class="st1" width="72" height="72"/>
</g>
<g id="Layer_1">
	<g>
		<path class="st2" d="M-225.6,398.2c-0.1,4-1.7,7.8-4.5,10.7c-6,6-15.8,6-21.8,0c-6-6-6-15.8,0-21.8c5.7-5.7,14.8-6,20.8-0.9
			l-5.4,1.4l0.3,1.3l7.9-1.9l0,0l0,0l-1.5-7.8l-1.3,0.3l1.1,5.6c-6.6-5.6-16.5-5.3-22.7,0.9c-6.5,6.5-6.5,17.2,0,23.7
			c6.5,6.5,17.2,6.5,23.7,0c3.1-3.1,4.8-7.2,4.9-11.6L-225.6,398.2z"/>
	</g>
</g>
</svg>
